<?xml version="1.0" encoding="utf-8"?>
<!-- Generator: Adobe Illustrator 19.0.0, SVG Export Plug-In . SVG Version: 6.00 Build 0)  -->
<svg version="1.1" id="图层_1" xmlns="http://www.w3.org/2000/svg" xmlns:xlink="http://www.w3.org/1999/xlink" x="0px" y="0px"
	 viewBox="-238 367.9 83 83" style="enable-background:new -238 367.9 83 83;" xml:space="preserve">
<path d="M-196.5,367.9c-22.8,0-41.4,18.6-41.5,41.5c0,11.3,4.4,22.2,12.2,30c7.4,7.4,17.2,11.5,27.7,11.5c0.6,0,1.1,0,1.7,0
	c23.2-1,41.4-19.2,41.4-41.5C-155,386.5-173.6,367.9-196.5,367.9z M-196.6,446.8c-0.5,0-1,0-1.5,0c-8.3,0-16.1-2.9-22.4-8.1
	c0,0,0-0.1,0-0.1c0-10.5,6.2-19.5,15.4-22.5c2.3,1.2,4.9,1.9,7.7,1.9c2.8,0,5.4-0.7,7.7-1.9c9.4,3.1,16,12.2,16.1,22.4
	C-179.9,443.4-187.8,446.5-196.6,446.8z M-197.3,414c-7.2,0-13-5.8-13-13s5.8-13,13-13s13,5.8,13,13S-190.2,414-197.3,414z
	 M-169.8,435.2c-1.2-9.6-7.3-17.9-15.9-21.8c3.3-3.1,5.4-7.5,5.4-12.4c0-9.4-7.6-17-17-17c-9.4,0-17,7.6-17,17
	c0,4.9,2.1,9.3,5.4,12.4c-8.4,3.9-14.1,12-15.3,21.7c-6.2-6.9-9.7-16.2-9.7-25.8c0-20.7,16.8-37.5,37.5-37.5
	c20.7,0,37.5,16.8,37.5,37.5C-159,419.4-163.1,428.5-169.8,435.2z"/>
</svg>
